<svg xmlns="http://www.w3.org/2000/svg" width="113.73" height="84.496" viewBox="0 0 113.73 84.496"><defs><style>.a{fill:#9d8b61;}.b{fill:#4c0b36;}</style></defs><g transform="translate(712.82 -497.698)"><path class="a" d="M-470.587,593.4c-5.061,3.08-5.223-3.2-5.223-3.2V574.323c-.084-5.413-5.839-7.914-8.7-8.283a36.519,36.519,0,0,0-12.7.18c-5.55,1.125-9.02,5.643-7.428,9.784s7.224,3.694,8.856,2.135a4.667,4.667,0,0,0,1.35-3.713,4.772,4.772,0,0,1-1.715-5.321c1.09-3.393,9.074-4.646,9.386,1.042v7.515A62.251,62.251,0,0,1-495.346,581c-3.981,1.114-10.271,2.439-11.563,7.378-1.338,5.106,3.534,11.05,10.973,9.546,6.539-1.326,8.769-5.273,9.261-6.334.456,3.329,3.035,7.377,8.517,6.139a17.543,17.543,0,0,0,7.763-4.174s.1-.1.089-.182c-.014-.137-.281.022-.281.022m-16.644-1.833c-.95,1.331-2.962,3.421-5.276,1.547-3.219-2.609-1.986-10.421.75-12.107,2.505-1.547,5-2.927,5-2.927v12.561c0,.081.01.167.015.247-.172.24-.436.6-.491.678" transform="translate(-165.81 -36.132)"/><path class="b" d="M-472.278,662.833a3.3,3.3,0,0,0-.579-1.764,3.3,3.3,0,0,0-.575,1.765c-.3-.44-.725-.43-1.213-.4.471.456.6,1.422,1.156,1.873a1.008,1.008,0,0,0,.538.243l.1,0c.034,0,.068,0,.1-.005a1.037,1.037,0,0,0,.539-.246c.549-.451.677-1.419,1.148-1.874-.485-.028-.908-.035-1.211.4" transform="translate(-183.105 -86.98)"/><path class="b" d="M-529.272,624.9a1.774,1.774,0,0,0-1.1.14,12.917,12.917,0,0,1-1.161.621,3.678,3.678,0,0,1-.576.156,2.417,2.417,0,0,1-1.594-.253,2.819,2.819,0,0,0,3.111,1.2,2.727,2.727,0,0,0-.441,1.469,2.837,2.837,0,0,0,.2,1.323,5.161,5.161,0,0,0,.5.867,2.777,2.777,0,0,1,.7-2.277c.424-.552,1.06-.885,1.282-1.592a1.355,1.355,0,0,0-.924-1.657" transform="translate(-151.663 -67.705)"/><path class="b" d="M-567.64,607.083c-.624-.152-1.215-.873-1.907-.982a1.021,1.021,0,0,0-.569.056c-.027.013-.054.025-.085.041a.786.786,0,0,0-.077.052.911.911,0,0,0-.324.448c-.228.623.157,1.465,0,2.056.416-.205.772-.4.8-.893a3.282,3.282,0,0,0,1.371,1.162,3.03,3.03,0,0,0-.418-1.7,1.167,1.167,0,0,0,1.211-.239" transform="translate(-131.977 -57.706)"/><path class="b" d="M-508.819,526.5a1.587,1.587,0,0,0,.973-1.622,2.23,2.23,0,0,0,1.195,1.267,1.751,1.751,0,0,0,.685-1.575,1.958,1.958,0,0,0,1.532,1.224c.006,0,.008,0,.012,0a2.224,2.224,0,0,0-2.236-2.373,1.944,1.944,0,0,0-.519.05,2.285,2.285,0,0,0-1.208.673,2.155,2.155,0,0,0-.439,2.339.037.037,0,0,0,0,.017" transform="translate(-164.815 -13.695)"/><path class="b" d="M-558.557,643.7a2.3,2.3,0,0,0-.778.89,1.694,1.694,0,0,0-.161.753,1.6,1.6,0,0,0,.148.636,1.438,1.438,0,0,0,.207.307,1.614,1.614,0,0,0,.83.53,2.2,2.2,0,0,0,1.062-.054,2.173,2.173,0,0,0,.831-.484l.06-.056a3.606,3.606,0,0,0,1.052-1.756,4.572,4.572,0,0,0,.126-1.172,4.183,4.183,0,0,0-.132-.967c-.746,1.061-2.259.711-3.244,1.376" transform="translate(-137.929 -77)"/><path class="b" d="M-512.588,663.572a1.411,1.411,0,0,1-.675-.3,2.238,2.238,0,0,1-.81.214,2.764,2.764,0,0,1,.027.9,2.1,2.1,0,0,0,.988.324,2.291,2.291,0,0,0,2.187-1.188,2.469,2.469,0,0,1-1.717.058" transform="translate(-162.113 -88.151)"/><path class="b" d="M-517.329,660.549a2.738,2.738,0,0,0,1.776-.231,2.258,2.258,0,0,0,1.213-1.029,1.729,1.729,0,0,1-1.792-.429c-.774-.659-2-.917-2.348.042a1.054,1.054,0,0,0,.108.935,1.6,1.6,0,0,0,1.042.712" transform="translate(-159.734 -85.491)"/><path class="b" d="M-518.23,661.635a1.608,1.608,0,0,1-1.183-1.235,1.267,1.267,0,0,1,.007-.431,1.247,1.247,0,0,0-.277.417,1.423,1.423,0,0,0,.1,1.234,7.89,7.89,0,0,0,1.127,1.49,1.341,1.341,0,0,1,.347.917,2.513,2.513,0,0,0,.646-.907,2.664,2.664,0,0,0,.117-1.38,4.474,4.474,0,0,1-.885-.1" transform="translate(-159.074 -86.395)"/><path class="b" d="M-559.027,594.527a2.3,2.3,0,0,0,2.187-1.187,2.475,2.475,0,0,1-1.717.057,1.394,1.394,0,0,1-.674-.3,2.224,2.224,0,0,1-.811.212,2.766,2.766,0,0,1,.028.9,2.09,2.09,0,0,0,.988.323" transform="translate(-137.638 -50.79)"/><path class="b" d="M-563.347,590.287a2.729,2.729,0,0,0,1.776-.2,2.306,2.306,0,0,0,1.212-1.056,1.734,1.734,0,0,1-1.791-.429c-.774-.66-2-.917-2.347.041a1.054,1.054,0,0,0,.108.936,1.594,1.594,0,0,0,1.042.712" transform="translate(-135.234 -48.083)"/><path class="b" d="M-564.2,591.459a1.611,1.611,0,0,1-1.185-1.235,1.3,1.3,0,0,1,.008-.431,1.263,1.263,0,0,0-.277.417,1.416,1.416,0,0,0,.1,1.234,7.88,7.88,0,0,0,1.126,1.49,1.338,1.338,0,0,1,.346.916,2.507,2.507,0,0,0,.647-.906,2.659,2.659,0,0,0,.117-1.38,4.479,4.479,0,0,1-.885-.1" transform="translate(-134.599 -49.032)"/><path class="b" d="M-492.82,501.374a2.238,2.238,0,0,1,.815-.2,2.754,2.754,0,0,1-.017-.9,2.113,2.113,0,0,0-.984-.337,2.3,2.3,0,0,0-2.2,1.16,2.481,2.481,0,0,1,1.718-.036,1.412,1.412,0,0,1,.67.312" transform="translate(-172.157 -1.187)"/><path class="b" d="M-489.986,503.206a2.752,2.752,0,0,0-1.779.207,2.28,2.28,0,0,0-1.228,1.012,1.737,1.737,0,0,1,1.787.454c.766.669,1.991.945,2.348-.009a1.06,1.06,0,0,0-.1-.938,1.6,1.6,0,0,0-1.032-.725" transform="translate(-173.337 -2.897)"/><path class="b" d="M-486.773,498.619a1.341,1.341,0,0,1-.334-.921,2.5,2.5,0,0,0-.659.9,2.655,2.655,0,0,0-.135,1.378,4.48,4.48,0,0,1,.883.116,1.614,1.614,0,0,1,1.169,1.253,1.289,1.289,0,0,1-.014.43,1.325,1.325,0,0,0,.284-.413,1.43,1.43,0,0,0-.087-1.237,7.837,7.837,0,0,0-1.107-1.5" transform="translate(-176.029 0)"/><path class="b" d="M-504.3,549.345a2.752,2.752,0,0,0,.388-1.484,2.865,2.865,0,0,0-.253-1.314,5.139,5.139,0,0,0-.528-.847,2.772,2.772,0,0,1-.619,2.3c-.4.565-1.025.923-1.221,1.637a1.354,1.354,0,0,0,.985,1.622,1.782,1.782,0,0,0,1.093-.18,12.8,12.8,0,0,1,1.138-.664,3.641,3.641,0,0,1,.568-.178,2.427,2.427,0,0,1,1.6.193,2.819,2.819,0,0,0-3.153-1.087" transform="translate(-166.106 -25.557)"/><path class="b" d="M-415.663,625.819a3.67,3.67,0,0,1-.575-.156,12.969,12.969,0,0,1-1.162-.622,1.775,1.775,0,0,0-1.1-.14,1.355,1.355,0,0,0-.923,1.657c.223.706.857,1.039,1.281,1.591a2.776,2.776,0,0,1,.7,2.278,5.148,5.148,0,0,0,.5-.867,2.841,2.841,0,0,0,.2-1.323,2.728,2.728,0,0,0-.442-1.469,2.819,2.819,0,0,0,3.11-1.2,2.418,2.418,0,0,1-1.594.254" transform="translate(-212.477 -67.705)"/><path class="b" d="M-374.468,606.7a.906.906,0,0,0-.322-.449c-.027-.019-.052-.036-.08-.052s-.056-.028-.084-.041a1.031,1.031,0,0,0-.57-.056c-.691.111-1.284.831-1.905.983a1.165,1.165,0,0,0,1.211.239,3.044,3.044,0,0,0-.419,1.7,3.293,3.293,0,0,0,1.374-1.163c.027.5.386.688.8.894-.161-.591.224-1.433,0-2.056" transform="translate(-234.864 -57.706)"/><path class="b" d="M-442.4,525.8a1.955,1.955,0,0,0,1.532-1.223,1.753,1.753,0,0,0,.685,1.575,2.224,2.224,0,0,0,1.194-1.268,1.591,1.591,0,0,0,.974,1.622.044.044,0,0,0,.006-.017,2.158,2.158,0,0,0-.439-2.339,2.3,2.3,0,0,0-1.209-.673,1.961,1.961,0,0,0-.52-.05,2.224,2.224,0,0,0-2.234,2.373s.007,0,.011,0" transform="translate(-200.266 -13.695)"/><path class="b" d="M-387.971,643.7c-.987-.665-2.5-.315-3.246-1.376a4.19,4.19,0,0,0-.131.967,4.587,4.587,0,0,0,.126,1.172,3.611,3.611,0,0,0,1.051,1.756c.019.018.039.037.061.056a2.166,2.166,0,0,0,.833.484,2.188,2.188,0,0,0,1.06.054,1.615,1.615,0,0,0,.83-.53,1.366,1.366,0,0,0,.207-.307,1.6,1.6,0,0,0,.148-.636,1.692,1.692,0,0,0-.161-.753,2.3,2.3,0,0,0-.778-.89" transform="translate(-227.453 -77)"/><path class="b" d="M-432,663.269a1.381,1.381,0,0,1-.675.3,2.47,2.47,0,0,1-1.717-.057A2.293,2.293,0,0,0-432.2,664.7a2.088,2.088,0,0,0,.988-.324,2.77,2.77,0,0,1,.029-.9,2.248,2.248,0,0,1-.812-.214" transform="translate(-204.537 -88.151)"/><path class="b" d="M-430.844,660.317a2.735,2.735,0,0,0,1.775.231,1.6,1.6,0,0,0,1.042-.712,1.057,1.057,0,0,0,.108-.935c-.344-.959-1.574-.7-2.347-.042a1.731,1.731,0,0,1-1.792.43,2.259,2.259,0,0,0,1.213,1.029" transform="translate(-205.779 -85.491)"/><path class="b" d="M-425.027,659.97a1.326,1.326,0,0,1,.008.43,1.613,1.613,0,0,1-1.185,1.235,4.49,4.49,0,0,1-.886.1,2.661,2.661,0,0,0,.116,1.38,2.521,2.521,0,0,0,.648.907,1.34,1.34,0,0,1,.346-.917,7.886,7.886,0,0,0,1.126-1.49,1.425,1.425,0,0,0,.1-1.234,1.267,1.267,0,0,0-.278-.417" transform="translate(-208.402 -86.395)"/><path class="b" d="M-386.028,593.093a1.4,1.4,0,0,1-.674.3,2.481,2.481,0,0,1-1.718-.057,2.3,2.3,0,0,0,2.186,1.187,2.084,2.084,0,0,0,.989-.324,2.733,2.733,0,0,1,.028-.9,2.223,2.223,0,0,1-.811-.213" transform="translate(-229.012 -50.789)"/><path class="b" d="M-384.827,590.085a2.731,2.731,0,0,0,1.776.2,1.6,1.6,0,0,0,1.041-.712,1.058,1.058,0,0,0,.108-.936c-.345-.958-1.573-.7-2.347-.04a1.737,1.737,0,0,1-1.793.429,2.319,2.319,0,0,0,1.214,1.057" transform="translate(-230.279 -48.083)"/><path class="b" d="M-378.883,591.444a1.418,1.418,0,0,0,.1-1.234,1.283,1.283,0,0,0-.278-.417,1.292,1.292,0,0,1,.009.431,1.612,1.612,0,0,1-1.186,1.235,4.481,4.481,0,0,1-.886.1,2.668,2.668,0,0,0,.118,1.38,2.511,2.511,0,0,0,.647.906,1.337,1.337,0,0,1,.348-.916,8,8,0,0,0,1.125-1.49" transform="translate(-232.877 -49.032)"/><path class="b" d="M-452.253,499.938a2.1,2.1,0,0,0-.984.337,2.765,2.765,0,0,1-.015.9,2.241,2.241,0,0,1,.814.2,1.411,1.411,0,0,1,.67-.312,2.485,2.485,0,0,1,1.719.035,2.3,2.3,0,0,0-2.2-1.16" transform="translate(-194.495 -1.187)"/><path class="b" d="M-454.634,503.412a2.749,2.749,0,0,0-1.778-.207,1.592,1.592,0,0,0-1.031.725,1.059,1.059,0,0,0-.1.938c.357.954,1.583.679,2.348.009a1.737,1.737,0,0,1,1.786-.454,2.273,2.273,0,0,0-1.228-1.012" transform="translate(-192.176 -2.897)"/><path class="b" d="M-458.563,501.342a1.613,1.613,0,0,1,1.169-1.253,4.479,4.479,0,0,1,.884-.116,2.648,2.648,0,0,0-.137-1.378,2.487,2.487,0,0,0-.658-.9,1.334,1.334,0,0,1-.334.921,7.837,7.837,0,0,0-1.107,1.5,1.428,1.428,0,0,0-.086,1.237,1.277,1.277,0,0,0,.284.413,1.289,1.289,0,0,1-.014-.43" transform="translate(-191.469 -0.001)"/><path class="b" d="M-442.485,548a2.779,2.779,0,0,1-.616-2.3,5.022,5.022,0,0,0-.53.847,2.855,2.855,0,0,0-.252,1.314,2.726,2.726,0,0,0,.387,1.484,2.819,2.819,0,0,0-3.153,1.087,2.427,2.427,0,0,1,1.6-.193,3.825,3.825,0,0,1,.569.177,12.771,12.771,0,0,1,1.136.665,1.792,1.792,0,0,0,1.095.18,1.356,1.356,0,0,0,.985-1.622c-.2-.715-.819-1.071-1.223-1.637" transform="translate(-198.011 -25.557)"/><path class="a" d="M-480.475,655.2a2.876,2.876,0,0,0-.153,1.994c.173.461.843,1.279,1.412,1.221a1.591,1.591,0,0,1,2.3.294l.117.258.049-.324a2.736,2.736,0,0,0-.048-.579,2.526,2.526,0,0,0-1.591-1.605c-.663-.223-1.852-.487-2.088-1.259" transform="translate(-179.856 -83.854)"/><path class="a" d="M-469.4,658.051a2.41,2.41,0,0,0-.046.577l.049.328.114-.26a1.59,1.59,0,0,1,2.3-.3c.569.054,1.236-.766,1.408-1.227a2.868,2.868,0,0,0-.157-1.991c-.231.77-1.425,1.035-2.085,1.263a2.514,2.514,0,0,0-1.586,1.608" transform="translate(-185.875 -83.845)"/><path class="a" d="M-472.844,656.273a2.39,2.39,0,0,1,.455-.748,2.37,2.37,0,0,1,.455.745,1.692,1.692,0,0,1,.431-1.145,2.048,2.048,0,0,0,.069-2.562c-.68-.9-.945-1.224-.96-1.244-.017.02-.279.349-.96,1.245a2.058,2.058,0,0,0,.076,2.565,1.679,1.679,0,0,1,.433,1.143" transform="translate(-183.573 -81.79)"/><path class="a" d="M-468.056,663.667c.369-.016.635.346.942.5a2.058,2.058,0,0,0,.95.181,1.952,1.952,0,0,0,1.714-1.263.879.879,0,0,1-1.121.045c-.416-.266-.751-.665-1.173-.918-.655-.4-1.821-.429-2,.5a1.339,1.339,0,0,1,1.329.224c-.557.051-.644.727-.644.727" transform="translate(-186.249 -87.448)"/><path class="a" d="M-477.782,662.723c-.179-.933-1.347-.9-2-.5-.419.256-.755.655-1.169.923a.878.878,0,0,1-1.12-.042,1.948,1.948,0,0,0,1.715,1.26,2.043,2.043,0,0,0,.95-.186c.308-.152.572-.518.942-.5,0,0-.089-.676-.648-.726a1.343,1.343,0,0,1,1.33-.227" transform="translate(-179.151 -87.453)"/><path class="a" d="M-531.326,559.821a6.653,6.653,0,0,1,4.09-.455c.784-.334,1.521-.6,2.369-.928a37.179,37.179,0,0,0,5.466-2.423,1.554,1.554,0,0,1-.611-1.376,37.743,37.743,0,0,1-5.4,2.359,26.407,26.407,0,0,0-5.911,2.822" transform="translate(-152.928 -30.316)"/><path class="a" d="M-581.252,614.77a9.5,9.5,0,0,1-3.891-.17l-.054-.012c-2.575-.495-5.447-2.44-5.663-5.545-.176-2.5.846-4.452,2.8-5.347a4.927,4.927,0,0,1,5.608.909,1.142,1.142,0,0,1,.323-.777.992.992,0,0,1,.806-.245,6.581,6.581,0,0,0-7.379-1.289,6.644,6.644,0,0,0-3.7,6.856c.272,3.908,3.756,6.336,6.886,6.946a12.087,12.087,0,0,0,2.418.327,4.782,4.782,0,0,1,1.842-1.653" transform="translate(-120.401 -55.366)"/><path class="a" d="M-560.8,610.335a2.739,2.739,0,0,0-.882-1.689c-.376-.292-1.347-.644-1.79-.333a1.517,1.517,0,0,1-2.058.836l-.225-.155.124.286a2.566,2.566,0,0,0,.332.446,2.567,2.567,0,0,0,2.131.561c.665-.127,1.785-.469,2.37.05" transform="translate(-134.596 -58.828)"/><path class="a" d="M-570.367,612.019a2.343,2.343,0,0,0-.253-.491l-.207-.24.037.264a1.5,1.5,0,0,1-1.758,1.312c-.5.221-.639,1.2-.547,1.651a2.781,2.781,0,0,0,1.138,1.541c-.2-.733.654-1.5,1.089-1.995a2.249,2.249,0,0,0,.5-2.042" transform="translate(-130.676 -60.477)"/><path class="a" d="M-565.651,614.894c1.019.406,1.4.552,1.427.559,0-.024.053-.411.165-1.456a1.986,1.986,0,0,0-1.363-2.043,1.682,1.682,0,0,1-.937-.724,2.146,2.146,0,0,1,0,.816,2.4,2.4,0,0,1-.756-.392,1.552,1.552,0,0,1,.223,1.128,1.959,1.959,0,0,0,1.24,2.112" transform="translate(-133.874 -60.446)"/><path class="a" d="M-574.223,610.325c-.3.184-.7.014-1.035.034a2.008,2.008,0,0,0-.88.293,1.752,1.752,0,0,0-.784,1.823c.07-.4.539-.572.906-.557.48.022.961.188,1.44.2.744.02,1.726-.5,1.4-1.341a1.306,1.306,0,0,1-1.216.44c.436-.3.168-.89.168-.89" transform="translate(-128.637 -59.964)"/><path class="a" d="M-565.433,606.243c.618.673,1.572.1,1.912-.526.215-.4.293-.882.5-1.291a.84.84,0,0,1,.952-.49,1.966,1.966,0,0,0-2.061-.22,1.9,1.9,0,0,0-.7.591c-.176.268-.211.686-.526.845,0,0,.415.507.9.286a1.234,1.234,0,0,1-.987.8" transform="translate(-134.769 -56.339)"/><path class="a" d="M-504.144,528.295a1.8,1.8,0,0,1-1.372-.771,1.935,1.935,0,0,1-.81,1.156,2.392,2.392,0,0,1-1.1-.823,1.8,1.8,0,0,1-1.052,1.09,4.793,4.793,0,0,0,3.711,3.473,5.263,5.263,0,0,1,.249-1.936,3.689,3.689,0,0,0,.373-2.189" transform="translate(-165.093 -15.88)"/><path class="a" d="M-518.159,518.683c1.181-.679.891-1.989,1.072-3.011a8.229,8.229,0,0,1,1.476-3.717,8.744,8.744,0,0,1,4.954-3.039c.212-.032.411-.053.563-.062a7.092,7.092,0,0,1,5.459,1.782,8.04,8.04,0,0,1,2.376,5.4c.187,2.726-1.129,4.957-3.228,6.88a11.738,11.738,0,0,0,1.8-5.644,6.465,6.465,0,0,0-1.665-4.791,5.174,5.174,0,0,0-3.808-1.7,5.311,5.311,0,0,0-4.642,3.039,2.545,2.545,0,0,1,1.862-.136,3.732,3.732,0,0,1,2.779-1.363,3.621,3.621,0,0,1,2.679,1.211,4.886,4.886,0,0,1,1.257,3.63c-.246,3.381-1.728,5.931-5.241,8.7a3.154,3.154,0,0,1-.414.331,4.221,4.221,0,0,1-.207,1.443,3.037,3.037,0,0,1,1.428.091l.2-.11c3.9-2.259,7.421-5.07,8.452-8.812l.013,0c1.282-3.656.887-10.407-1.525-13.307a4.215,4.215,0,0,1-1.012,1.206,10.881,10.881,0,0,1,1.579,4.918,8.474,8.474,0,0,0-1.635-2.111,8.57,8.57,0,0,0-6.6-2.192,7.872,7.872,0,0,0-1.167.158,10.3,10.3,0,0,0-3.256.313,5.156,5.156,0,0,0-1.838.881c-.706.576-1.075,1.385-.273,2.062a4.483,4.483,0,0,0-1.414.424,2.411,2.411,0,0,0-1.4,2.011,4.888,4.888,0,0,0,1.016,2.7c.394.688.728,1.617-.214,2.013a.673.673,0,0,0-.175-1.015.9.9,0,0,0-1.321.588c-.262,1.146,1.161,1.756,2.072,1.234" transform="translate(-158.818 -4.151)"/><path class="a" d="M-568.358,578.112a2.516,2.516,0,0,1,.852-1.294,5.133,5.133,0,0,1-1.369-3.473,5.012,5.012,0,0,1,5.008-5.005h0c3.624,0,4.889,2.13,5.391,4.348a12.515,12.515,0,0,1,.474-2.656c-.9-1.777-2.541-3.232-5.866-3.232a6.556,6.556,0,0,0-6.548,6.546,6.58,6.58,0,0,0,2.058,4.768" transform="translate(-132.116 -36.79)"/><path class="a" d="M-555.257,629.974a2.6,2.6,0,0,1,1.7.557,2.775,2.775,0,0,1,.3-1.1,2.989,2.989,0,0,1-.244-.559,18.7,18.7,0,0,1-.7-5.651,15.543,15.543,0,0,1,1.389-6.178,4.1,4.1,0,0,1,.16-2.115,4.171,4.171,0,0,1-1.34-.142,10.646,10.646,0,0,1-3.664-.522c-3.321-1.037-5.208-4.038-4.487-7.135a4.559,4.559,0,0,1,2.044-2.858,4.557,4.557,0,0,1,3.467-.573,3.493,3.493,0,0,1,2.189,1.566,3.5,3.5,0,0,1,.44,2.657,2.662,2.662,0,0,1-3.193,1.989,1.758,1.758,0,0,1-.191-.055,2.048,2.048,0,0,0,.227-.076,2.252,2.252,0,0,0,1.265-2.922,2.251,2.251,0,0,0-2.923-1.263,2.25,2.25,0,0,0-1.413,1.92,3.52,3.52,0,0,0,2.687,3.9,4.205,4.205,0,0,0,5.042-3.14,5.022,5.022,0,0,0-.633-3.82,5.015,5.015,0,0,0-3.148-2.252,6.082,6.082,0,0,0-4.629.766,6.084,6.084,0,0,0-2.73,3.815,7.683,7.683,0,0,0,5.528,8.956,16.07,16.07,0,0,0,4.143.6l-.2.311a16.568,16.568,0,0,0-1.368,9.732c-.324-.687-.626-1.389-.931-2.105a41.422,41.422,0,0,0-1.961-4.148,11.833,11.833,0,0,0-6.952-5.932,7.366,7.366,0,0,0-5.747.709,5.742,5.742,0,0,0-3.112,5.134,5.774,5.774,0,0,0,5.767,5.767,5.367,5.367,0,0,0,1.959-.344,1.81,1.81,0,0,1-1.078-1.284,3.538,3.538,0,0,1-.881.088,4.233,4.233,0,0,1-4.227-4.227,4.208,4.208,0,0,1,2.292-3.772l.039-.022a5.858,5.858,0,0,1,4.586-.561,10.469,10.469,0,0,1,6.011,5.2,39.734,39.734,0,0,1,1.885,4,29.318,29.318,0,0,0,2.411,4.8Z" transform="translate(-130.081 -55.55)"/><path class="a" d="M-514.943,669.34c-2.788,2.477-7.8,2.387-10.725-.2a10.2,10.2,0,0,1-1.361-1.461,1.485,1.485,0,0,1-1.386.772,12.947,12.947,0,0,0,1.728,1.845,10,10,0,0,0,6.6,2.4,9.277,9.277,0,0,0,6.171-2.2,5.822,5.822,0,0,0,.921-.96,6.732,6.732,0,0,0-1.446-.678c-.115.12-.373.375-.5.486" transform="translate(-154.478 -90.502)"/><path class="a" d="M-507.867,655.678a8.033,8.033,0,0,0,.677-3.205,7.829,7.829,0,0,0-2.177-5.7,6.917,6.917,0,0,0-9.7.061,5.617,5.617,0,0,0-1.473,5.324l.122.317A2.508,2.508,0,0,1-519.179,651a3.871,3.871,0,0,1,1.206-3.079,5.384,5.384,0,0,1,7.551-.023,6.346,6.346,0,0,1,1.691,4.553,6.294,6.294,0,0,1-.535,2.547,10.12,10.12,0,0,1,1.4.68" transform="translate(-158.583 -78.33)"/><path class="a" d="M-542.371,564.29a9.967,9.967,0,0,0,3,2.644,9.967,9.967,0,0,1-1.085-12.654,7.346,7.346,0,0,1,2.367-2.177,5,5,0,0,1,1.55-.578,4.406,4.406,0,0,1,1.812-.011,3.758,3.758,0,0,1,2.769,1.86,4.93,4.93,0,0,1,.335.718,4.659,4.659,0,0,1-.326,3.409c-1.3,2.1-3.7,1.791-5,1.2-.136-.062-.361-.147-.555-.235a2.566,2.566,0,0,0-1.859-.309,1.379,1.379,0,0,0-.957.9,1.191,1.191,0,0,0,1.4,1.473c1.028-.3.627-1.516-.217-1.145.351-.626,1.035-.195,1.622.533a6.158,6.158,0,0,0,1.646,1.393c1.648,1.048,3.964.526,3.981-1.665,2.948.652,3.7-4.469.926-7.484a6.08,6.08,0,0,0-3.424-2.023,5.9,5.9,0,0,0-3.7.361,8.215,8.215,0,0,0-3.653,2.943,11.274,11.274,0,0,0-.874,1.614,11.041,11.041,0,0,1,.347-1.119c1.03-2.748,2.977-4,5.233-5.444a33.7,33.7,0,0,0,2.778-1.922c2.933-2.32,3.652-5.456,1.827-7.994a4.375,4.375,0,0,0-3.529-1.817,4.338,4.338,0,0,0-4.1,2.93,1.909,1.909,0,0,0-.068.271,2.226,2.226,0,0,0-.126.737A2.252,2.252,0,0,0-538,542.946a2.251,2.251,0,0,0,2.25-2.251,2.25,2.25,0,0,0-1.413-2.09,2.744,2.744,0,0,1,1.2-.28,2.8,2.8,0,0,1,2.258,1.165c1.567,2.18.237,4.449-1.528,5.845-.869.687-1.775,1.27-2.652,1.832-2.389,1.532-4.642,2.978-5.854,6.214a11.609,11.609,0,0,0,1.366,10.908" transform="translate(-145.905 -20.795)"/><path class="a" d="M-577.522,593.86a1.836,1.836,0,0,1,1.294,2.119,1.7,1.7,0,0,1-.87,1.246,5.1,5.1,0,0,1,1.645.6,3.261,3.261,0,0,0,.743-1.578,2.4,2.4,0,0,0-2.178-2.887,2.672,2.672,0,0,0-1.819.665,1.754,1.754,0,0,1,1.185-.162" transform="translate(-127.702 -50.929)"/><path class="a" d="M-521.786,637.043a2.685,2.685,0,0,1,3.043,1.888,2.863,2.863,0,0,0-2.933-3.012,3.424,3.424,0,0,0-3.506,3.45,3.62,3.62,0,0,0,2.832,3.509,4.332,4.332,0,0,1,.908-1.115,2.534,2.534,0,0,1-2.392-2.394,2.337,2.337,0,0,1,2.047-2.325" transform="translate(-156.199 -73.59)"/><path class="a" d="M-531.416,661.67c.145-.727-.252-1.324-.359-2.011a2.78,2.78,0,0,1,.479-2.335,5.254,5.254,0,0,0-.852.519,2.87,2.87,0,0,0-.815,1.064,2.748,2.748,0,0,0-.318,1.5,2.819,2.819,0,0,0-3.306-.439,2.416,2.416,0,0,1,1.52.545,3.545,3.545,0,0,1,.429.412,12.929,12.929,0,0,1,.719,1.1,1.791,1.791,0,0,0,.9.652,1.355,1.355,0,0,0,1.606-1.008" transform="translate(-150.127 -84.986)"/><path class="a" d="M-427.953,559.366a6.644,6.644,0,0,1,4.087.455A26.384,26.384,0,0,0-429.775,557a37.694,37.694,0,0,1-5.4-2.359,1.555,1.555,0,0,1-.611,1.376,37.3,37.3,0,0,0,5.467,2.423c.846.323,1.586.593,2.369.928" transform="translate(-203.793 -30.316)"/><path class="a" d="M-365.632,602.294a6.581,6.581,0,0,0-7.379,1.289.989.989,0,0,1,.8.245,1.137,1.137,0,0,1,.323.777,4.93,4.93,0,0,1,5.611-.909c1.956.9,2.977,2.846,2.8,5.347-.217,3.1-3.088,5.05-5.664,5.545l-.053.012a9.51,9.51,0,0,1-3.893.17,4.777,4.777,0,0,1,1.841,1.653,12.1,12.1,0,0,0,2.419-.327c3.13-.61,6.612-3.038,6.885-6.946a6.642,6.642,0,0,0-3.7-6.856" transform="translate(-237.18 -55.366)"/><path class="a" d="M-463.366,518.8c1.03,3.742,4.547,6.554,8.451,8.812l.2.111a3.041,3.041,0,0,1,1.429-.091,4.189,4.189,0,0,1-.208-1.443,3.22,3.22,0,0,1-.414-.331c-3.514-2.766-4.994-5.317-5.241-8.7a4.879,4.879,0,0,1,1.258-3.629,3.611,3.611,0,0,1,2.679-1.212,3.738,3.738,0,0,1,2.78,1.363,2.537,2.537,0,0,1,1.86.136,5.313,5.313,0,0,0-4.64-3.04,5.172,5.172,0,0,0-3.809,1.7,6.46,6.46,0,0,0-1.665,4.791,11.739,11.739,0,0,0,1.8,5.643c-2.1-1.924-3.413-4.153-3.227-6.88a8.038,8.038,0,0,1,2.374-5.4,7.092,7.092,0,0,1,5.46-1.781c.151.008.351.029.563.061a8.744,8.744,0,0,1,4.952,3.04,8.207,8.207,0,0,1,1.478,3.717c.181,1.022-.109,2.332,1.073,3.011.91.523,2.333-.089,2.071-1.233a.9.9,0,0,0-1.321-.589.674.674,0,0,0-.175,1.015c-.941-.4-.607-1.325-.213-2.013a4.866,4.866,0,0,0,1.014-2.7,2.4,2.4,0,0,0-1.4-2.01,4.525,4.525,0,0,0-1.414-.424c.8-.677.431-1.486-.275-2.062a5.157,5.157,0,0,0-1.838-.881,10.3,10.3,0,0,0-3.255-.313,7.857,7.857,0,0,0-1.169-.157,8.566,8.566,0,0,0-6.6,2.192,8.421,8.421,0,0,0-1.637,2.112,10.872,10.872,0,0,1,1.58-4.919,4.236,4.236,0,0,1-1.013-1.206c-2.413,2.9-2.807,9.651-1.525,13.307Z" transform="translate(-188.721 -4.151)"/><path class="a" d="M-386.452,610.335c.584-.519,1.7-.177,2.368-.05a2.568,2.568,0,0,0,2.132-.561,2.484,2.484,0,0,0,.331-.446l.125-.286-.227.155a1.516,1.516,0,0,1-2.057-.836c-.443-.311-1.414.041-1.79.333a2.731,2.731,0,0,0-.881,1.689" transform="translate(-230.06 -58.828)"/><path class="a" d="M-374.222,611.527a2.427,2.427,0,0,0-.254.491,2.251,2.251,0,0,0,.5,2.042c.435.492,1.288,1.263,1.088,2a2.787,2.787,0,0,0,1.14-1.541c.092-.454-.049-1.43-.548-1.651a1.5,1.5,0,0,1-1.759-1.311l.039-.265Z" transform="translate(-236.393 -60.476)"/><path class="a" d="M-378.746,612.047a2.163,2.163,0,0,1,0-.816,1.682,1.682,0,0,1-.938.724A1.986,1.986,0,0,0-381.045,614c.111,1.045.161,1.432.166,1.456.025-.007.407-.153,1.427-.559a1.956,1.956,0,0,0,1.239-2.112,1.556,1.556,0,0,1,.224-1.128,2.394,2.394,0,0,1-.756.392" transform="translate(-232.933 -60.446)"/><path class="a" d="M-372.806,610.774c-.326.839.656,1.362,1.4,1.341.48-.01.961-.176,1.441-.2.367-.015.838.154.906.558a1.757,1.757,0,0,0-.782-1.823,2.027,2.027,0,0,0-.881-.293c-.331-.02-.735.15-1.035-.035,0,0-.268.587.168.89a1.3,1.3,0,0,1-1.215-.439" transform="translate(-237.291 -59.963)"/><path class="a" d="M-380.094,605.153c-.313-.159-.348-.577-.525-.845a1.9,1.9,0,0,0-.7-.591,1.965,1.965,0,0,0-2.06.22.838.838,0,0,1,.951.49c.208.409.285.889.5,1.291.339.63,1.291,1.2,1.912.526a1.233,1.233,0,0,1-.987-.8c.487.221.9-.286.9-.286" transform="translate(-231.698 -56.339)"/><path class="a" d="M-438.152,528.947a1.8,1.8,0,0,1-1.052-1.091,2.391,2.391,0,0,1-1.1.823,1.937,1.937,0,0,1-.809-1.156,1.8,1.8,0,0,1-1.373.771,3.691,3.691,0,0,0,.373,2.189,5.222,5.222,0,0,1,.246,1.935,4.792,4.792,0,0,0,3.714-3.472" transform="translate(-200.189 -15.879)"/><path class="a" d="M-391.882,568.34h0a5.012,5.012,0,0,1,5.007,5,5.129,5.129,0,0,1-1.37,3.474,2.522,2.522,0,0,1,.853,1.294,6.575,6.575,0,0,0,2.058-4.768,6.556,6.556,0,0,0-6.549-6.545c-3.324,0-4.965,1.455-5.866,3.232a12.627,12.627,0,0,1,.476,2.657c.5-2.218,1.766-4.348,5.39-4.348" transform="translate(-224.046 -36.79)"/><path class="a" d="M-395.391,614.9a7.366,7.366,0,0,0-5.747-.709,11.834,11.834,0,0,0-6.952,5.932,40.973,40.973,0,0,0-1.961,4.148c-.305.716-.608,1.418-.932,2.105a16.585,16.585,0,0,0-1.369-9.732l-.2-.311a16.075,16.075,0,0,0,4.143-.6,7.682,7.682,0,0,0,5.528-8.956,6.082,6.082,0,0,0-2.73-3.815,6.081,6.081,0,0,0-4.629-.766,5.023,5.023,0,0,0-3.149,2.252,5.029,5.029,0,0,0-.632,3.82,4.206,4.206,0,0,0,5.043,3.14,3.521,3.521,0,0,0,2.687-3.9,2.251,2.251,0,0,0-1.414-1.919,2.251,2.251,0,0,0-2.923,1.263,2.251,2.251,0,0,0,1.262,2.922,1.952,1.952,0,0,0,.229.077,1.951,1.951,0,0,1-.191.055,2.663,2.663,0,0,1-3.194-1.989,3.507,3.507,0,0,1,.44-2.657,3.5,3.5,0,0,1,2.191-1.566,4.559,4.559,0,0,1,3.467.573,4.557,4.557,0,0,1,2.043,2.858c.721,3.1-1.167,6.1-4.487,7.135a10.643,10.643,0,0,1-3.664.522,4.17,4.17,0,0,1-1.34.142,4.1,4.1,0,0,1,.16,2.115,15.547,15.547,0,0,1,1.389,6.178,18.757,18.757,0,0,1-.7,5.651,3.112,3.112,0,0,1-.245.559,2.78,2.78,0,0,1,.3,1.1,2.6,2.6,0,0,1,1.7-.557l.217-.3a29.485,29.485,0,0,0,2.41-4.8,38.989,38.989,0,0,1,1.887-4,10.457,10.457,0,0,1,6.009-5.2,5.859,5.859,0,0,1,4.586.561l.04.022a4.21,4.21,0,0,1,2.291,3.772,4.233,4.233,0,0,1-4.227,4.227,3.556,3.556,0,0,1-.881-.088A1.81,1.81,0,0,1-400,625.456a5.36,5.36,0,0,0,1.957.344,5.776,5.776,0,0,0,5.769-5.767,5.744,5.744,0,0,0-3.113-5.134" transform="translate(-215.314 -55.55)"/><path class="a" d="M-432.137,667.683a10.069,10.069,0,0,1-1.36,1.462c-2.925,2.582-7.937,2.672-10.725.194-.126-.112-.382-.366-.5-.485a6.7,6.7,0,0,0-1.444.677,5.8,5.8,0,0,0,.92.959,9.278,9.278,0,0,0,6.172,2.205,10,10,0,0,0,6.594-2.4,12.852,12.852,0,0,0,1.729-1.845,1.487,1.487,0,0,1-1.387-.772" transform="translate(-198.268 -90.502)"/><path class="a" d="M-436.584,652.476l.12-.317a5.616,5.616,0,0,0-1.472-5.323,6.917,6.917,0,0,0-9.7-.061,7.835,7.835,0,0,0-2.178,5.7,8.009,8.009,0,0,0,.678,3.205,10.063,10.063,0,0,1,1.4-.679,6.371,6.371,0,0,1-.536-2.547,6.347,6.347,0,0,1,1.693-4.553,5.383,5.383,0,0,1,7.55.022,3.872,3.872,0,0,1,1.206,3.08,2.5,2.5,0,0,1,1.24,1.476" transform="translate(-196.326 -78.33)"/><path class="a" d="M-426.582,538.573c-1.823,2.538-1.1,5.674,1.827,7.995a33.779,33.779,0,0,0,2.78,1.921c2.255,1.447,4.2,2.7,5.232,5.444a11.05,11.05,0,0,1,.349,1.118,11.259,11.259,0,0,0-.874-1.613,8.227,8.227,0,0,0-3.653-2.943,5.906,5.906,0,0,0-3.7-.361,6.068,6.068,0,0,0-3.424,2.023c-2.768,3.015-2.023,8.136.925,7.484.018,2.191,2.333,2.712,3.981,1.665a6.154,6.154,0,0,0,1.647-1.393c.587-.728,1.27-1.158,1.622-.533-.845-.371-1.245.842-.217,1.146a1.192,1.192,0,0,0,1.4-1.473,1.379,1.379,0,0,0-.959-.9,2.562,2.562,0,0,0-1.857.309c-.194.088-.419.173-.556.235-1.3.594-3.7.9-5-1.2a4.65,4.65,0,0,1-.324-3.408,4.994,4.994,0,0,1,.334-.718,3.758,3.758,0,0,1,2.769-1.861,4.4,4.4,0,0,1,1.812.012,4.99,4.99,0,0,1,1.549.577,7.332,7.332,0,0,1,2.367,2.177,9.969,9.969,0,0,1-1.084,12.655,9.985,9.985,0,0,0,3-2.644,11.609,11.609,0,0,0,1.366-10.908c-1.212-3.236-3.466-4.682-5.853-6.214a32.055,32.055,0,0,1-2.654-1.833c-1.767-1.4-3.095-3.664-1.529-5.845a2.808,2.808,0,0,1,2.259-1.165,2.731,2.731,0,0,1,1.2.28,2.251,2.251,0,0,0-1.413,2.089,2.252,2.252,0,0,0,2.252,2.251,2.251,2.251,0,0,0,2.251-2.251,2.274,2.274,0,0,0-.123-.732,1.854,1.854,0,0,0-.071-.276,4.335,4.335,0,0,0-4.1-2.93,4.382,4.382,0,0,0-3.531,1.817" transform="translate(-206.994 -20.795)"/><path class="a" d="M-371.5,596.243a3.244,3.244,0,0,0,.743,1.578,5.091,5.091,0,0,1,1.644-.6,1.694,1.694,0,0,1-.868-1.246,1.833,1.833,0,0,1,1.292-2.119,1.755,1.755,0,0,1,1.185.162,2.668,2.668,0,0,0-1.818-.665,2.4,2.4,0,0,0-2.179,2.887" transform="translate(-237.996 -50.929)"/><path class="a" d="M-423.761,639.368a3.426,3.426,0,0,0-3.508-3.45,2.862,2.862,0,0,0-2.93,3.013,2.684,2.684,0,0,1,3.042-1.888,2.337,2.337,0,0,1,2.048,2.325,2.535,2.535,0,0,1-2.393,2.394,4.364,4.364,0,0,1,.909,1.115,3.62,3.62,0,0,0,2.833-3.509" transform="translate(-206.768 -73.59)"/><path class="a" d="M-476.837,668.05a2.9,2.9,0,0,1,1.794,1.9,7.092,7.092,0,0,0,1.591.07,4.548,4.548,0,0,0-2.793-3.4,5.7,5.7,0,0,0-5.54.5c-.62.34-1.215.717-1.794,1.082a16.3,16.3,0,0,1-3.487,1.833,3.7,3.7,0,0,1-4.021-.838,3.37,3.37,0,0,1-.685-1.707c0-.013,0-.028,0-.044l-.007-.174v-.013h0a1.38,1.38,0,0,1-.7.241h-.106a1.371,1.371,0,0,1-.7-.241h0v.027l-.006.161c0,.013,0,.026,0,.039a3.366,3.366,0,0,1-.685,1.711,3.7,3.7,0,0,1-4.02.838,16.256,16.256,0,0,1-3.486-1.833c-.578-.364-1.177-.742-1.795-1.082a5.7,5.7,0,0,0-5.539-.5,4.551,4.551,0,0,0-2.795,3.4,7.091,7.091,0,0,0,1.591-.07,2.9,2.9,0,0,1,1.8-1.9c1.476-.614,2.5-.507,4.206.431.577.318,1.156.682,1.715,1.035a17.586,17.586,0,0,0,3.822,1.99,5.917,5.917,0,0,0,3.264.173,4.523,4.523,0,0,0,2.431-1.491c.088-.108.173-.226.255-.349.083.123.167.241.257.349a4.513,4.513,0,0,0,2.429,1.491,5.92,5.92,0,0,0,3.265-.173,17.617,17.617,0,0,0,3.822-1.99c.559-.353,1.138-.718,1.715-1.035,1.707-.938,2.728-1.045,4.206-.431" transform="translate(-163.425 -89.672)"/><path class="a" d="M-414.357,660.405a2.757,2.757,0,0,0-.318-1.5,2.884,2.884,0,0,0-.815-1.063,5.23,5.23,0,0,0-.852-.519,2.781,2.781,0,0,1,.479,2.335c-.107.686-.5,1.284-.36,2.011a1.356,1.356,0,0,0,1.607,1.009,1.8,1.8,0,0,0,.9-.651,12.856,12.856,0,0,1,.719-1.1,3.632,3.632,0,0,1,.429-.411,2.415,2.415,0,0,1,1.519-.545,2.817,2.817,0,0,0-3.306.439" transform="translate(-214.146 -84.986)"/></g></svg>